<svg xmlns="http://www.w3.org/2000/svg" width="48" height="48" viewBox="0 0 48 48">
  <rect width="48" height="48" rx="11" fill="#000000"/>
  <path transform="translate(9.33 11.2) scale(0.1635)" fill="#FFFFFF" d="M4.11,5.64v56.8c0,.35.27.64.62.64,2.95.04,15.64,1.21,21.47,18.24,6.63,19.33,28.72,69.6,28.72,69.6h34.83c11.32,0,41.7-6.08,56.62-49.71,14.91-43.64,28.97-95.56,28.97-95.56h-72.91v23.2s0,11.6,12.7,20.44c12.7,8.84,24.3,18.23,22.65,34.25-1.66,16.02-13.26,18.23-18.23,18.23h-20.99s-21.54-50.27-27.07-63.52c-5.52-13.26-21.54-32.59-38.11-32.59H4.11Z"/>
</svg>
